<?xml version="1.0" standalone="no"?>
<!DOCTYPE svg PUBLIC "-//W3C//DTD SVG 20010904//EN"
 "http://www.w3.org/TR/2001/REC-SVG-20010904/DTD/svg10.dtd">
<svg version="1.0" xmlns="http://www.w3.org/2000/svg"
 width="1384.000000pt" height="1384.000000pt" viewBox="0 0 1384.000000 1384.000000"
 preserveAspectRatio="xMidYMid meet">
<metadata>
Created by potrace 1.11, written by Peter Selinger 2001-2013
</metadata>
<g transform="translate(0.000000,1384.000000) scale(0.100000,-0.100000)"
fill="#000000" stroke="none">
<path d="M4158 13835 c-3 -3 -2 -23 2 -45 4 -22 5 -42 2 -45 -7 -7 -5 -123 3
-135 3 -5 1 -11 -3 -14 -5 -3 -6 -22 -3 -43 4 -21 4 -55 0 -76 -3 -20 -3 -40
2 -43 4 -2 6 -11 3 -18 -7 -18 -10 -126 -4 -126 3 0 4 -26 2 -57 -1 -32 -2
-68 -2 -80 0 -13 0 -30 0 -38 0 -8 0 -26 0 -40 0 -14 0 -32 0 -40 0 -8 0 -26
0 -40 0 -32 0 -47 -1 -117 0 -32 2 -61 5 -66 2 -4 1 -14 -4 -21 -4 -8 -4 -27
0 -42 5 -16 5 -31 1 -34 -5 -2 -5 -23 -1 -45 4 -22 5 -40 1 -40 -7 0 -5 -116
3 -136 3 -7 1 -16 -3 -18 -5 -3 -5 -24 -1 -46 4 -22 5 -40 1 -40 -7 0 -4 -117
3 -136 2 -6 1 -28 -4 -48 -4 -20 -4 -38 0 -41 4 -3 4 -21 0 -40 -4 -19 -4 -37
0 -40 4 -3 4 -21 0 -40 -4 -19 -4 -37 0 -40 4 -3 5 -20 1 -37 -4 -18 -6 -42
-5 -53 5 -63 6 -81 4 -90 -4 -21 0 -126 5 -135 3 -5 1 -11 -4 -14 -4 -3 -5
-23 -2 -43 4 -21 4 -55 0 -76 -3 -21 -2 -40 2 -43 5 -2 6 -11 3 -18 -9 -23
-10 -126 -1 -126 5 0 6 -4 2 -9 -7 -12 -10 -200 -2 -207 3 -3 2 -18 -2 -32 -5
-15 -5 -36 -1 -47 4 -11 4 -29 0 -40 -4 -11 -4 -29 0 -41 5 -11 5 -26 0 -33
-4 -7 -4 -28 0 -47 4 -19 4 -36 0 -39 -4 -2 -4 -23 0 -45 4 -21 5 -42 2 -45
-5 -5 -6 -106 -1 -131 1 -5 0 -13 -1 -19 -4 -21 -1 -117 3 -122 3 -2 2 -17 -2
-31 -5 -15 -5 -36 -1 -47 4 -11 4 -29 0 -40 -4 -11 -4 -29 0 -41 5 -11 5 -26
0 -33 -4 -7 -4 -28 0 -47 4 -19 4 -36 0 -39 -4 -2 -4 -23 0 -45 4 -21 5 -42 2
-45 -7 -7 -5 -123 3 -135 3 -5 1 -11 -4 -14 -4 -3 -5 -24 -1 -46 4 -21 5 -42
2 -45 -7 -7 -5 -123 3 -135 3 -5 1 -11 -4 -14 -4 -3 -5 -23 -2 -43 4 -21 4
-55 0 -76 -3 -21 -2 -40 2 -43 5 -2 6 -11 3 -18 -7 -18 -10 -126 -4 -126 3 0
4 -26 2 -57 -1 -32 -2 -68 -2 -80 0 -13 0 -30 0 -38 0 -8 0 -26 0 -40 0 -14 0
-32 0 -40 0 -8 0 -26 0 -40 0 -32 0 -47 -1 -117 0 -32 2 -61 5 -66 2 -4 1 -14
-4 -21 -4 -8 -4 -27 0 -42 5 -16 5 -31 1 -34 -5 -2 -5 -23 -1 -45 4 -22 5 -40
1 -40 -7 0 -5 -116 3 -136 3 -7 1 -16 -3 -18 -5 -3 -5 -24 -1 -46 4 -22 5 -40
1 -40 -7 0 -4 -117 3 -136 2 -6 1 -28 -4 -48 -4 -20 -4 -38 0 -41 4 -3 4 -21
0 -40 -4 -19 -4 -37 0 -40 4 -3 4 -21 0 -40 -4 -19 -4 -37 0 -40 4 -3 5 -20 1
-37 -4 -18 -6 -42 -5 -53 5 -63 6 -81 4 -90 -4 -21 0 -126 5 -135 3 -5 1 -11
-4 -14 -4 -3 -5 -23 -2 -43 4 -21 4 -55 0 -76 -3 -21 -2 -40 2 -43 5 -2 6 -11
3 -18 -9 -23 -10 -126 -1 -126 5 0 6 -4 2 -9 -7 -12 -10 -200 -2 -207 3 -3 2
-18 -2 -32 -5 -15 -5 -36 -1 -47 4 -11 4 -29 0 -40 -4 -11 -4 -29 0 -41 5 -11
5 -26 0 -33 -4 -7 -4 -28 0 -47 4 -19 4 -36 0 -39 -4 -2 -4 -23 0 -45 4 -21 5
-42 2 -45 -5 -5 -6 -106 -1 -131 1 -5 0 -13 -1 -19 -4 -21 -1 -117 3 -122 3
-2 2 -17 -2 -31 -5 -15 -5 -36 -1 -47 4 -11 4 -29 0 -40 -4 -11 -4 -29 0 -41
5 -11 5 -26 0 -33 -4 -7 -4 -28 0 -47 4 -19 4 -36 0 -39 -4 -2 -4 -23 0 -45 4
-21 5 -42 2 -45 -7 -7 -5 -123 3 -135 3 -5 1 -11 -4 -14 -4 -3 -5 -24 -1 -46
4 -21 5 -42 2 -45 -7 -7 -5 -123 3 -135 3 -5 1 -11 -4 -14 -4 -3 -5 -23 -2
-43 4 -21 4 -55 0 -76 -3 -21 -2 -40 2 -43 5 -2 6 -11 3 -18 -7 -18 -10 -126
-4 -126 3 0 4 -26 2 -57 -1 -32 -2 -68 -2 -80 0 -13 0 -30 0 -38 0 -8 0 -26 0
-40 0 -14 0 -32 0 -40 0 -8 0 -26 0 -40 0 -32 0 -47 -1 -117 0 -32 2 -61 5
-66 2 -4 1 -14 -4 -21 -4 -8 -4 -27 0 -42 5 -16 5 -31 1 -34 -5 -2 -5 -23 -1
-45 4 -22 5 -40 1 -40 -7 0 -5 -116 3 -136 3 -7 1 -16 -3 -18 -5 -3 -5 -24 -1
-46 4 -22 5 -40 1 -40 -7 0 -4 -117 3 -136 2 -6 1 -28 -4 -48 -4 -20 -4 -38 0
-41 4 -3 4 -21 0 -40 -4 -19 -4 -37 0 -40 4 -3 4 -21 0 -40 -4 -19 -4 -37 0
-40 4 -3 5 -20 1 -37 -4 -18 -6 -42 -5 -53 5 -63 6 -81 4 -90 -4 -21 0 -126 5
-135 3 -5 1 -11 -4 -14 -4 -3 -5 -23 -2 -43 4 -21 4 -55 0 -76 -3 -21 -2 -40
2 -43 5 -2 6 -11 3 -18 -7 -18 -10 -126 -4 -126 6 0 3 -129 -4 -146 -3 -8 -1
-16 3 -19 5 -3 5 -21 1 -40 -4 -19 -4 -37 0 -40 4 -3 4 -21 0 -40 -4 -19 -4
-37 0 -40 4 -3 5 -20 1 -37 -7 -32 -5 -92 3 -114 2 -6 1 -17 -4 -24 -4 -7 -4
-26 0 -41 5 -16 5 -31 1 -34 -5 -2 -5 -23 -1 -45 4 -22 5 -40 1 -40 -7 0 -5
-116 3 -136 3 -7 1 -16 -3 -18 -5 -3 -5 -24 -1 -46 4 -22 5 -40 1 -40 -3 0 -5
-24 -3 -52 1 -29 2 -74 2 -100 0 -27 0 -55 0 -63 2 -110 -1 -237 -5 -234 -2 2
-119 118 -260 258 -140 140 -258 251 -263 247 -4 -3 -157 -156 -340 -339
l-332 -332 1072 -1072 c590 -590 1076 -1073 1079 -1073 4 0 9 11 11 25 3 14 2
25 -3 25 -4 0 -4 14 1 30 5 17 5 30 0 30 -5 0 -7 6 -4 13 8 21 10 127 2 127
-4 0 -3 14 2 30 5 17 5 30 0 30 -5 0 -5 12 -1 28 4 15 4 39 0 54 -4 16 -4 28
1 28 4 0 4 16 0 35 -4 19 -5 35 -1 35 3 0 6 18 6 40 0 22 -3 40 -7 40 -4 0 -3
14 2 30 5 17 5 30 0 30 -5 0 -5 12 -1 28 4 15 4 39 0 54 -4 16 -3 28 1 28 5 0
5 13 0 29 -4 16 -6 32 -3 35 8 8 9 146 1 146 -4 0 -3 11 2 25 6 15 6 26 -1 30
-5 4 -6 11 -2 18 10 16 10 58 1 63 -5 3 -5 10 -1 17 10 16 10 58 1 63 -5 3 -5
11 -1 17 10 16 10 47 1 75 -5 13 -5 21 0 19 4 -3 7 17 7 44 0 27 -3 49 -7 49
-4 0 -3 13 2 30 5 17 5 32 0 35 -5 3 -5 16 -1 28 5 12 5 34 0 49 -4 16 -4 28
1 28 5 0 5 13 0 30 -5 16 -5 32 -1 35 4 2 5 25 1 50 -4 25 -4 45 1 45 4 0 3
16 -1 35 -4 19 -5 35 -1 35 3 0 6 18 6 40 0 22 -3 40 -7 40 -4 0 -3 13 2 30 5
17 5 30 0 30 -5 0 -5 12 -1 28 4 15 4 39 0 55 -4 15 -4 27 1 27 4 0 4 16 0 35
-4 19 -5 35 -1 35 3 0 6 18 6 40 0 22 -3 40 -7 40 -4 0 -3 14 2 30 5 17 5 30
0 30 -5 0 -5 12 -1 28 4 15 4 39 0 54 -4 16 -4 28 1 28 4 0 4 16 0 35 -4 19
-5 35 -1 35 3 0 6 18 6 40 0 22 -3 40 -7 40 -4 0 -3 14 2 30 5 17 5 30 0 30
-5 0 -5 12 -1 27 4 16 4 40 0 56 -4 15 -4 27 1 27 4 0 4 16 0 35 -4 19 -5 35
-1 35 3 0 6 18 6 40 0 22 -3 40 -7 40 -4 0 -3 14 2 30 5 17 5 30 0 30 -5 0 -5
12 -1 28 4 15 4 39 0 55 -4 15 -4 27 1 27 4 0 4 16 0 35 -4 19 -5 35 -1 35 3
0 6 18 6 40 0 22 -3 40 -7 40 -4 0 -3 14 2 30 5 17 5 30 0 30 -5 0 -5 12 -1
28 4 15 4 39 0 54 -4 16 -4 28 1 28 4 0 4 16 0 35 -4 19 -5 35 -1 35 3 0 6 18
6 40 0 22 -3 40 -7 40 -4 0 -3 14 2 30 5 17 5 30 0 30 -5 0 -7 6 -4 13 8 23
10 98 2 103 -4 3 -3 16 2 29 6 15 6 27 0 30 -6 3 -6 15 0 30 6 15 6 27 0 30
-6 3 -6 15 0 30 6 15 6 27 0 30 -6 3 -6 15 0 30 6 15 6 27 0 30 -6 3 -6 15 0
30 6 15 6 27 0 30 -6 3 -6 15 0 30 6 15 6 27 0 30 -6 3 -6 15 0 30 6 15 6 27
0 30 -6 3 -6 15 0 30 6 15 6 27 0 30 -6 3 -6 15 0 30 6 15 6 27 0 30 -6 3 -6
15 0 30 6 15 6 27 0 30 -6 3 -6 15 0 30 6 15 6 27 0 30 -6 3 -6 15 0 30 6 15
6 27 0 30 -6 3 -6 15 0 30 6 15 6 27 0 30 -6 3 -6 15 0 30 6 15 6 27 0 30 -6
3 -6 15 0 30 6 15 6 27 0 30 -6 3 -6 15 0 30 6 15 6 27 0 30 -6 3 -6 15 0 30
6 15 6 27 0 30 -6 3 -6 15 0 30 6 15 6 27 0 30 -6 3 -6 15 0 30 6 15 6 27 0
30 -6 3 -6 15 0 30 6 15 6 27 0 30 -6 3 -6 15 0 30 6 15 6 27 0 30 -6 3 -6 15
0 30 6 15 6 27 0 30 -6 3 -6 15 0 30 6 15 6 27 0 30 -6 3 -6 15 0 30 6 15 6
27 0 30 -6 3 -6 15 0 30 6 15 6 27 0 30 -6 3 -6 15 0 30 6 15 6 27 0 30 -6 3
-6 15 0 30 6 15 6 27 0 30 -6 3 -6 15 0 30 6 15 6 27 0 30 -6 3 -6 15 0 30 6
15 6 27 0 30 -6 3 -6 15 0 30 6 15 6 27 0 30 -6 3 -6 15 0 30 6 15 6 27 0 30
-6 3 -6 15 0 30 6 15 6 27 0 30 -6 3 -6 15 0 30 6 15 6 27 0 30 -6 3 -6 15 0
30 6 15 6 27 0 30 -6 3 -6 15 0 30 6 15 6 27 0 30 -6 3 -6 15 0 30 6 15 6 27
0 30 -6 3 -6 15 0 30 6 15 6 27 0 30 -6 3 -6 15 0 30 6 15 6 27 0 30 -6 3 -6
15 0 30 6 15 6 27 0 30 -6 3 -6 15 0 30 6 15 6 27 0 30 -6 3 -6 15 0 30 6 15
6 27 0 30 -6 3 -6 15 0 30 6 15 6 27 0 30 -6 3 -6 15 0 30 6 15 6 27 0 30 -6
3 -6 15 0 30 6 15 6 27 0 30 -6 3 -6 15 0 30 6 15 6 27 0 30 -6 3 -6 15 0 30
6 15 6 27 0 30 -6 3 -6 15 0 30 6 15 6 27 0 30 -6 3 -6 15 0 30 6 15 6 27 0
30 -6 3 -6 15 0 30 6 15 6 27 0 30 -6 3 -6 15 0 30 6 15 6 27 0 30 -6 3 -6 15
0 30 6 15 6 27 0 30 -6 3 -6 15 0 30 6 15 6 27 0 30 -6 3 -6 15 0 30 6 15 6
27 0 30 -6 3 -6 15 0 30 6 15 6 27 0 30 -6 3 -6 15 0 30 6 15 6 27 0 30 -6 3
-6 15 0 30 6 15 6 27 0 30 -6 3 -6 15 0 30 6 15 6 27 0 30 -6 3 -6 15 0 30 6
15 6 27 0 30 -6 3 -6 15 0 30 6 15 6 27 0 30 -6 3 -6 15 0 30 6 15 6 27 0 30
-6 3 -6 15 0 30 6 15 6 27 0 30 -6 3 -6 15 0 30 6 15 6 27 0 30 -6 3 -6 15 0
30 6 15 6 27 0 30 -6 3 -6 15 0 30 6 15 6 27 0 30 -6 3 -6 15 0 30 6 15 6 27
0 30 -6 3 -6 15 0 30 6 15 6 27 0 30 -6 3 -6 15 0 30 6 15 6 27 0 30 -6 3 -6
15 0 30 6 15 6 27 0 30 -6 3 -6 15 0 30 6 15 6 27 0 30 -6 3 -6 15 0 30 6 15
6 27 0 30 -6 3 -6 15 0 30 6 15 6 27 0 30 -6 3 -6 15 0 30 6 15 6 27 0 30 -6
3 -6 15 0 30 6 15 6 27 0 30 -6 3 -6 15 0 30 6 15 6 27 0 30 -6 3 -6 15 0 30
6 15 6 27 0 30 -6 3 -6 15 0 30 6 15 6 27 0 30 -6 3 -6 15 0 30 6 15 6 27 0
30 -6 3 -6 15 0 30 6 15 6 27 0 30 -6 3 -6 15 0 30 6 15 6 27 0 30 -6 3 -6 15
0 30 6 15 6 27 0 30 -6 3 -6 15 0 30 6 15 6 27 0 30 -6 3 -6 15 0 30 5 14 5
27 0 30 -5 3 -5 18 0 35 5 19 5 30 -1 30 -6 0 -7 5 -3 11 9 15 9 5013 0 5028
-4 6 -3 11 3 11 6 0 6 11 1 30 -5 18 -5 32 1 36 5 3 6 10 3 16 -4 6 -7 24 -6
39 l1 29 -478 0 c-263 0 -480 -2 -483 -5z"/>
<path d="M8690 8058 l0 -5723 -263 263 -262 262 -340 -340 -339 -340 1079
-1079 c594 -594 1081 -1078 1082 -1077 2 2 3 2578 3 5726 l0 5723 261 -261
c144 -144 264 -262 266 -262 3 0 156 151 341 335 301 301 333 337 321 352 -22
28 -2139 2143 -2144 2143 -3 0 -5 -2575 -5 -5722z"/>
</g>
</svg>
