<?xml version="1.0" encoding="UTF-8"?>
<svg width="928px" height="905px" viewBox="0 0 928 905" version="1.1" xmlns="http://www.w3.org/2000/svg" xmlns:xlink="http://www.w3.org/1999/xlink">
    <!-- Generator: Sketch 53.2 (72643) - https://sketchapp.com -->
    <title>github</title>
    <desc>Created with Sketch.</desc>
    <g id="Page-1" stroke="none" stroke-width="1" fill="none" fill-rule="evenodd">
        <g id="Social-Icons" transform="translate(-308.000000, -299.000000)" fill-rule="nonzero" stroke="#000000" stroke-width="35">
            <g id="github" transform="translate(326.000000, 317.000000)">
                <path d="M446,0 C199.585,0 0,199.486881 0,445.531839 C0,642.419785 127.779,809.382841 304.9525,868.230172 C327.2525,872.425597 335.429167,858.651237 335.429167,846.807516 C335.429167,836.226135 335.0575,808.194757 334.871667,771.067103 C210.809333,797.947524 184.644,711.291582 184.644,711.291582 C164.351,659.869782 135.0265,646.13255 135.0265,646.13255 C94.6263333,618.509576 138.1485,619.066491 138.1485,619.066491 C182.934333,622.185214 206.460833,664.95627 206.460833,664.95627 C246.229167,733.085514 310.862,713.407858 336.358333,702.009668 C340.372333,673.198609 351.856833,653.558081 364.605,642.419785 C265.555833,631.281489 161.452,592.965751 161.452,422.252801 C161.452,373.615575 178.7345,333.888986 207.352833,302.701757 C202.335333,291.452078 187.282833,246.156341 211.255333,184.78433 C211.255333,184.78433 248.607833,172.829226 333.905333,230.451344 C369.585333,220.53826 407.495333,215.63741 445.405333,215.414644 C483.315333,215.63741 521.225333,220.53826 556.905333,230.451344 C641.645333,172.829226 678.997833,184.78433 678.997833,184.78433 C702.970333,246.156341 687.917833,291.452078 683.457833,302.701757 C711.890333,333.888986 729.172833,373.615575 729.172833,422.252801 C729.172833,593.411282 624.920333,631.09585 525.685333,642.048508 C541.295333,655.414463 555.790333,682.740416 555.790333,724.471898 C555.790333,784.09891 555.232833,831.993582 555.232833,846.473367 C555.232833,858.168578 563.037833,872.091448 585.895333,867.636129 C764.3325,809.197203 892,642.122763 892,445.531839 C892,199.486881 692.3035,2.26709865e-14 446,2.26709865e-14" id="Path"></path>
            </g>
        </g>
    </g>
</svg>