<?xml version="1.0" encoding="UTF-8"?>
<svg width="785px" height="784px" viewBox="0 0 785 784" version="1.1" xmlns="http://www.w3.org/2000/svg" xmlns:xlink="http://www.w3.org/1999/xlink">
    <!-- Generator: Sketch 53.2 (72643) - https://sketchapp.com -->
    <title>instagram</title>
    <desc>Created with Sketch.</desc>
    <g id="Page-1" stroke="none" stroke-width="1" fill="none" fill-rule="evenodd">
        <g id="Social-Icons" transform="translate(-1784.000000, -359.000000)" fill-rule="nonzero">
            <g id="instagram" transform="translate(1819.000000, 394.000000)">
                <path d="M363.798974,-16.2897329 C464.826317,-16.2792453 483.165438,-15.9507384 534.932159,-13.6999045 C572.745011,-11.9223773 598.141493,-6.5229643 621.101214,2.50176605 C643.581277,11.1883876 660.055547,21.8918781 677.1754,38.8903057 C694.11249,55.8678175 704.844374,72.392691 713.54049,94.9145462 C722.600109,118.22649 727.95758,143.403969 729.66529,181.102466 C731.937965,231.57978 732.217583,249.199117 732.217583,357.5 C732.217583,464.696772 731.912959,482.601133 729.51443,534.021572 C727.545808,571.780403 722.099759,597.083312 713.092916,620.118995 L713.050768,620.225758 C703.990342,642.957718 693.389881,659.308516 676.617535,676.16066 C659.835441,692.942755 643.162778,703.740289 620.640946,712.530284 C597.622202,721.518556 571.918439,726.95383 534.132226,728.665511 C483.274763,730.940923 465.828516,731.217583 357.41375,731.217583 C250.082783,731.217583 232.394266,730.916804 180.667252,728.519401 L180.567079,728.514471 C142.691309,726.541438 116.864756,721.019342 94.1051996,712.078083 C71.28295,703.093577 55.0850493,692.532912 38.2394624,675.646963 C21.0792379,658.56826 10.0665564,641.76728 1.66653697,619.567216 C-7.21514837,596.921987 -12.7152707,571.078278 -14.6869304,533.261197 L-14.6943977,533.117972 L-14.6995166,532.974643 C-15.3209593,515.574249 -15.4628494,511.480969 -15.6899947,503.999431 C-16.6365572,472.822287 -16.919375,440.955826 -16.919375,356.956875 C-16.919375,273.219428 -16.6381508,241.253659 -15.7002413,209.947334 C-15.4717515,202.320611 -15.3342879,198.308709 -14.6997772,180.330904 L-14.6945889,180.183903 L-14.6869304,180.037011 C-12.7175294,142.263253 -7.23200006,116.478209 1.64060542,93.8333499 C9.87811623,71.5419854 20.6614788,55.2291588 38.2099647,37.680673 C55.7039353,20.1867024 72.0531883,9.38018643 94.2809531,1.18696394 C117.139731,-7.82170497 142.344434,-13.2477769 180.038075,-15.1807841 L180.177525,-15.1879354 L180.317071,-15.1928605 C197.722882,-15.8071833 202.327229,-15.964429 210.010419,-16.1925101 C240.866889,-17.1085071 272.411712,-17.37625 356.870625,-17.37625 L362.169199,-17.37625 L363.798974,-16.2897329 Z" id="Path" stroke="#000000" stroke-width="35"></path>
                <path d="M642.590583,125.585625 C642.590583,154.37125 619.2,177.725625 590.450583,177.725625 C561.664958,177.725625 538.310583,154.335042 538.310583,125.585625 C538.310583,96.8362083 561.701167,73.4818333 590.450583,73.4818333 C619.163792,73.445625 642.590583,96.8362083 642.590583,125.585625 Z" id="Path" fill="#000000"></path>
                <path d="M358.5,502.333333 C278.479583,502.333333 213.666667,437.520417 213.666667,357.5 C213.666667,277.479583 278.479583,212.666667 358.5,212.666667 C438.520417,212.666667 503.333333,277.479583 503.333333,357.5 C503.333333,437.520417 438.520417,502.333333 358.5,502.333333 Z" id="Path" stroke="#000000" stroke-width="35"></path>
            </g>
        </g>
    </g>
</svg>