<?xml version="1.0" encoding="UTF-8"?>
<svg width="958px" height="739px" viewBox="0 0 958 739" version="1.1" xmlns="http://www.w3.org/2000/svg" xmlns:xlink="http://www.w3.org/1999/xlink">
    <!-- Generator: Sketch 53.2 (72643) - https://sketchapp.com -->
    <title>twitter</title>
    <desc>Created with Sketch.</desc>
    <g id="Page-1" stroke="none" stroke-width="1" fill="none" fill-rule="evenodd">
        <g id="Social-Icons" transform="translate(-3204.000000, -369.000000)" fill-rule="nonzero" stroke="#000000" stroke-width="35">
            <g id="twitter" transform="translate(3278.000000, 394.000000)">
                <path d="M855.321778,82.8834777 C823.72122,96.7628031 789.978251,106.217871 754.44994,110.53509 C790.656681,88.7349157 818.50802,54.3755575 831.683847,13.3798124 C797.726636,33.1819347 760.091621,47.5964526 720.02854,55.62434 C688.035207,21.4076998 642.437565,0 591.805258,0 C494.789759,0 416.127578,78.6019378 416.127578,175.4361 C416.127578,189.351105 417.734386,202.730917 420.662347,215.539857 C274.621349,208.653714 145.184034,138.579177 58.5592267,32.6467422 C43.3124036,58.407341 34.7784676,88.3424412 34.7784676,120.953504 C34.7784676,181.965448 65.8434232,235.591736 112.905046,267.096735 C84.0896213,266.169068 56.9881255,258.248219 33.3501937,245.118163 L33.3501937,247.294612 C33.3501937,332.390219 93.8018833,403.356744 174.249406,419.519557 C159.502479,423.479982 143.934294,425.620752 127.973334,425.620752 C116.761385,425.620752 106.013624,424.550367 95.2658639,422.552315 C117.796883,492.234377 182.569101,543.041985 259.660181,544.469165 C199.67268,591.530425 123.652806,619.574512 41.7770093,619.574512 C27.8513395,619.574512 13.9613766,618.753883 0,617.183985 C78.1622849,666.921208 170.25024,696 269.836632,696 C593.126411,696 769.696763,428.54647 769.696763,196.986518 C769.696763,189.529502 769.696763,182.001128 769.16116,174.508433 C803.475439,149.925258 833.433482,118.848413 857,83.5970677 L855.321778,82.8834777 Z" id="Path"></path>
            </g>
        </g>
    </g>
</svg>