<?xml version="1.0" encoding="UTF-8"?>
<svg width="869px" height="899px" viewBox="0 0 869 899" version="1.1" xmlns="http://www.w3.org/2000/svg" xmlns:xlink="http://www.w3.org/1999/xlink">
    <!-- Generator: Sketch 53.2 (72643) - https://sketchapp.com -->
    <title>C#</title>
    <desc>Created with Sketch.</desc>
    <g id="Page-1" stroke="none" stroke-width="1" fill="none" fill-rule="evenodd">
        <g id="Tools" transform="translate(-3596.000000, -227.000000)">
            <g id="C#" transform="translate(3596.200000, 227.800000)">
                <path d="M-1.25055521e-12,448.8 C-1.25055521e-12,386.399688 9.199908,327.800274 27.6,273 C46.000092,218.199726 72.599826,170.600202 107.4,130.2 C142.200174,89.799798 184.999746,58.000116 235.8,34.8 C286.600254,11.599884 343.99968,0 408,0 C458.400252,0 501.999816,6.599934 538.8,19.8 C575.600184,33.000066 606.599874,49.399902 631.8,69 C657.000126,88.600098 677.59992,109.999884 693.6,133.2 C709.60008,156.400116 721.799958,178.199898 730.2,198.6 L685.8,218.2 L668.048949,184.393184 C650.448861,155.993042 625.200132,126.8001 598.8,106.8 C572.399868,86.7999 543.000162,71.600052 510.6,61.2 C478.199838,50.799948 444.00018,45.6 408,45.6 C351.99972,45.6 302.00022,56.399892 258,78 C213.99978,99.600108 176.800152,128.599818 146.4,165 C115.999848,201.400182 92.80008,243.999756 76.8,292.8 C60.79992,341.600244 52.8,393.599724 52.8,448.8 C52.8,504.000276 60.79992,555.999756 76.8,604.8 C92.80008,653.600244 115.999848,696.199818 146.4,732.6 C176.800152,769.000182 213.99978,797.999892 258,819.6 C302.00022,841.200108 351.99972,852 408,852 C449.600208,852 488.599818,843.400086 525,826.2 C561.400182,808.999914 593.199864,786.200142 620.4,757.8 C647.600136,729.399858 669.399918,696.600186 685.8,659.4 L729,685.2 C708.599898,728.400216 682.600158,765.799842 651,797.4 C619.399842,829.000158 582.800208,853.599912 541.2,871.2 C499.599792,888.800088 455.200236,897.6 408,897.6 C343.99968,897.6 286.600254,886.000116 235.8,862.8 C184.999746,839.599884 142.200174,807.800202 107.4,767.4 C72.599826,726.999798 46.000092,679.400274 27.6,624.6 C9.199908,569.799726 -1.25055521e-12,511.200312 -1.25055521e-12,448.8 Z" id="C" fill="#0A0B08" fill-rule="nonzero"></path>
                <g id="Octpthorp" transform="translate(584.800000, 316.200000)" stroke="#000000" stroke-linecap="square" stroke-width="35">
                    <path d="M78.4,0.901569767 L78.4,265.761628" id="Line-6"></path>
                    <path d="M189.4,0.901569767 L189.4,265.761628" id="Line-6-Copy"></path>
                    <g id="Group-2" transform="translate(133.500000, 133.000000) rotate(90.000000) translate(-133.500000, -133.000000) translate(77.000000, 0.000000)">
                        <path d="M1.4,0.901569767 L1.4,265.761628" id="Line-6"></path>
                        <path d="M112.4,0.901569767 L112.4,265.761628" id="Line-6-Copy"></path>
                    </g>
                </g>
            </g>
        </g>
    </g>
</svg>