<?xml version="1.0" encoding="UTF-8"?>
<svg width="28px" height="26px" viewBox="0 0 28 26" version="1.1" xmlns="http://www.w3.org/2000/svg" xmlns:xlink="http://www.w3.org/1999/xlink">
    <!-- Generator: Sketch 53.2 (72643) - https://sketchapp.com -->
    <title>_01_languages logos [Recovered]</title>
    <desc>Created with Sketch.</desc>
    <g id="Page-1" stroke="none" stroke-width="1" fill="none" fill-rule="evenodd">
        <g id="_01_languages-logos-[Recovered]" fill="#000000" fill-rule="nonzero">
            <path d="M18.54,16 L18.19,16.48 C16.4941548,18.8927837 13.3388718,19.7859458 10.63,18.62 C7.92579161,17.4732087 6.43072296,14.5546662 7.08,11.69 C7.50565279,9.31635286 9.35105126,7.45106863 11.72,7 C14.1290277,6.37509497 16.6708422,7.33177793 18.07,9.39 C18.42,9.85 18.64,9.86 19.07,9.59 C20.41,8.78 21.78,8.02 23.14,7.23 C23.41,7.07 23.67,6.9 23.93,6.73 C21.2344013,2.01273984 15.8113184,-0.436524556 10.49,0.66 C4.67652124,1.92368585 0.517428286,7.05087937 0.48,13 C0.568462522,18.9370574 4.75888799,24.0203882 10.57,25.24 C15.8749688,26.3413837 21.2817294,23.8767751 23.93,19.15 L18.54,16 Z" id="Path"></path>
            <path d="M27.27,12.11 L27.27,10.86 L26.17,10.86 L26.17,9.64 L24.93,9.64 L24.93,10.87 L23.16,10.87 L23.16,9.64 L21.91,9.64 L21.91,10.87 L20.65,10.87 L20.65,12.12 L21.91,12.12 L21.91,13.88 L20.65,13.88 L20.65,15.13 L21.91,15.13 L21.91,16.27 L23.16,16.27 L23.16,15.12 L24.93,15.12 L24.93,16.26 L26.18,16.26 L26.18,15.12 L27.28,15.12 L27.28,13.87 L26.18,13.87 L26.18,12.11 L27.27,12.11 Z M24.93,13.87 L23.16,13.87 L23.16,12.11 L24.93,12.11 L24.93,13.87 Z" id="Shape"></path>
        </g>
    </g>
</svg>