<?xml version="1.0" encoding="UTF-8"?>
<svg width="100px" height="111px" xmlns="http://www.w3.org/2000/svg" viewBox="0 0 589.31 651.71">
  <defs>
    <style>.a{fill:#4f4f4f;}.b{fill:none;stroke:#4f4f4f;stroke-miterlimit:10;stroke-width:50px;}</style>
  </defs>
  <title>DLMlogo</title>
  <path class="a" d="M292.24,651.71q-133.6,0-212.92-88.77T0,332.23Q0,181.5,81.52,90.75T304.1,0Q431.54,0,510.42,87.23T589.31,316q0,156.45-80.86,246.09T292.24,651.71Zm4.39-612.16q-109.87,0-180.83,79.54t-71,208.3q0,130.09,67.24,207.2t179.3,77.12q116.89,0,185-76.25T544.48,323q0-133.59-66.58-208.52T296.63,39.55Z"/>
  <line class="b" x1="169.65" y1="174.59" x2="419.65" y2="174.59"/>
  <line class="b" x1="169.65" y1="279.35" x2="419.65" y2="279.35"/>
  <line class="b" x1="169.65" y1="384.11" x2="419.65" y2="384.11"/>
  <line class="b" x1="169.65" y1="488.87" x2="419.65" y2="488.87"/>
</svg>