<?xml version="1.0" encoding="UTF-8"?>
<svg width="828px" height="939px" viewBox="0 0 828 939" version="1.1" xmlns="http://www.w3.org/2000/svg" xmlns:xlink="http://www.w3.org/1999/xlink">
    <!-- Generator: Sketch 53.2 (72643) - https://sketchapp.com -->
    <style type="text/css">
        #dlm path,#dlm polyline{vector-effect:non-scaling-stroke;}
        #dlm .line{shape-rendering:crispEdges;}
    </style>
    <title>DLMlogo</title>
    <desc>Created with Sketch.</desc>
    <g id="dlm" stroke="none" stroke-width="1" fill="none" fill-rule="evenodd">
        <g id="Artboard" transform="translate(-2663.000000, -222.000000)" stroke="#000000" stroke-width="2">
            <g id="DLMlogo" transform="translate(2698.000000, 257.000000)">
                <path d="M382.018772,-17.5 C502.832048,-17.5 599.299168,22.4240097 670.088837,102.188 C740.516337,181.543906 775.5,291.240781 775.5,430.50939 C775.468777,572.440551 739.686166,684.145427 667.691993,764.841306 C595.35684,845.919379 497.017899,886.5 373.992433,886.5 C255.729617,886.489434 160.218335,845.358701 88.8045602,763.363198 C17.8261538,681.867574 -17.5,572.878379 -17.4999992,437.167669 C-17.4582773,302.702471 19.8596534,193.08658 94.6393104,109.163678 C169.751214,24.867906 265.956038,-17.5 382.018772,-17.5 Z" id="Path" fill-rule="nonzero"></path>
                <path class="line" d="M190,205.5 L570,205.5" id="Path"></path>
                <path class="line" d="M190,364.5 L570,364.5" id="Path"></path>
                <path class="line" d="M190,523.5 L570,523.5" id="Path"></path>
                <path class="line" d="M190,681.5 L570,681.5" id="Path"></path>
            </g>
        </g>
    </g>
</svg>