<?xml version="1.0" encoding="UTF-8"?>
<svg width="100px" height="100px" xmlns="http://www.w3.org/2000/svg" viewBox="0 0 890.39 890.39">
  <defs>
    <style>.a{fill:none;stroke:#4f4f4f;stroke-miterlimit:10;stroke-width:40px;}</style>
  </defs>
  <title>Logo</title>
  <path class="a" d="M445.2,20A423.22,423.22,0,0,0,205.28,94.11L387.43,276.26h0l40.19,40.19L501.06,243c78.58-78.58,159.39-85.53,252.23,7.07C799.3,296,813,357.31,813,357.31l-90,67.2s-21.25-39-41.93-58.13c-36.14-36.14-54.22-22.79-79.36,2.36L540.78,429.6,631.14,520,530.56,604.82l-82.5-82.5L187.19,783.19a423.33,423.33,0,0,0,258,87.2c234.83,0,425.2-190.37,425.2-425.2S680,20,445.2,20Z"/>
  <path class="a" d="M288,362.23h0L109.7,184A425.41,425.41,0,0,0,80.38,663.7L334.91,409.17Z"/>
</svg>