<?xml version="1.0" encoding="UTF-8"?>
<svg width="936px" height="935px" viewBox="0 0 936 935" version="1.1" xmlns="http://www.w3.org/2000/svg" xmlns:xlink="http://www.w3.org/1999/xlink">
    <!-- Generator: Sketch 53.2 (72643) - https://sketchapp.com -->
    <title>FauxbookLogo</title>
    <desc>Created with Sketch.</desc>
    <g id="Page-1" stroke="none" stroke-width="1" fill="none" fill-rule="evenodd">
        <g id="Artboard" transform="translate(-3848.000000, -219.000000)" stroke="#000000" stroke-width="35">
            <g id="FauxbookLogo" transform="translate(3866.000000, 237.000000)">
                <path d="M450.040442,0.000570807655 C359.423038,-0.14399333 270.893219,27.1741078 196.143838,78.3467504 L388.905035,270.908572 L388.905035,270.908572 L431.436314,313.395861 L509.154581,235.747407 C592.31228,152.675719 677.829889,145.328453 776.078308,243.221534 C824.768633,291.776925 839.26673,356.591447 839.26673,356.591447 L744.023756,427.632646 C744.023756,427.632646 721.535831,386.403379 699.651112,366.179895 C661.405767,327.974107 642.272512,342.087202 615.667974,368.674794 L551.188481,433.013594 L646.812427,528.580922 L540.373112,618.249293 L453.067052,531.033535 L177,806.815047 C255.361186,866.746772 351.339914,899.152541 450.029859,898.99946 C698.539944,898.99946 900,697.747777 900,449.49473 C900,201.241682 698.518779,0.000570807655 450.040442,0.000570807655 Z" id="Path"></path>
                <path d="M283.392604,362.373171 L283.392604,362.373171 L94.8400818,174 C-19.1685496,320.419786 -31.483672,521.793011 63.8341371,681 L333,411.984553 L283.392604,362.373171 Z" id="Path"></path>
            </g>
        </g>
    </g>
</svg>