<?xml version="1.0" encoding="UTF-8"?>
<svg width="1022px" height="543px" viewBox="0 0 1022 543" version="1.1" xmlns="http://www.w3.org/2000/svg" xmlns:xlink="http://www.w3.org/1999/xlink">
    <!-- Generator: Sketch 53.2 (72643) - https://sketchapp.com -->
    <title>php</title>
    <desc>Created with Sketch.</desc>
    <g id="Page-1" stroke="none" stroke-width="1" fill="none" fill-rule="evenodd">
        <g id="Tools" transform="translate(-510.000000, -2697.000000)" fill="#0A0B08" fill-rule="nonzero">
            <path d="M600.6,2816.4 L634.8,2816.4 L622.8,2872.2 L624,2872.2 C637.200066,2851.7999 652.499913,2835.90006 669.9,2824.5 C687.300087,2813.09994 709.599864,2807.4 736.8,2807.4 C756.8001,2807.4 774.099927,2810.49997 788.7,2816.7 C803.300073,2822.90003 815.499951,2831.49995 825.3,2842.5 C835.100049,2853.50005 842.399976,2866.79992 847.2,2882.4 C852.000024,2898.00008 854.4,2915.19991 854.4,2934 C854.4,2958.00012 850.500039,2981.89988 842.7,3005.7 C834.899961,3029.50012 823.600074,3050.89991 808.8,3069.9 C793.999926,3088.90009 776.200104,3104.39994 755.4,3116.4 C734.599896,3128.40006 711.20013,3134.4 685.2,3134.4 C673.19994,3134.4 661.600056,3133.10001 650.4,3130.5 C639.199944,3127.89999 629.200044,3123.80003 620.4,3118.2 C611.599956,3112.59997 604.20003,3105.30004 598.2,3096.3 C592.19997,3087.29995 588.20001,3076.60006 586.2,3064.2 L585,3064.2 L547.2,3240 L510,3240 L600.6,2816.4 Z M733.2,2839.2 C711.599892,2839.2 692.400084,2844.69995 675.6,2855.7 C658.799916,2866.70006 644.700057,2880.69992 633.3,2897.7 C621.899943,2914.70008 613.20003,2933.4999 607.2,2954.1 C601.19997,2974.7001 598.2,2994.5999 598.2,3013.8 C598.2,3041.40014 605.699925,3063.19992 620.7,3079.2 C635.700075,3095.20008 656.999862,3103.2 684.6,3103.2 C706.200108,3103.2 725.299917,3097.80005 741.9,3087 C758.500083,3076.19995 772.299945,3062.40008 783.3,3045.6 C794.300055,3028.79992 802.599972,3010.3001 808.2,2990.1 C813.800028,2969.8999 816.6,2950.40009 816.6,2931.6 C816.6,2905.19987 809.800068,2883.20009 796.2,2865.6 C782.599932,2847.99991 761.600142,2839.2 733.2,2839.2 Z M972.353687,2697.6 L1010.15369,2697.6 L972.353687,2872.8 L973.553687,2872.8 C984.353741,2854.39991 999.353591,2838.90006 1018.55369,2826.3 C1037.75378,2813.69994 1058.95357,2807.4 1082.15369,2807.4 C1095.75376,2807.4 1108.25363,2808.99998 1119.65369,2812.2 C1131.05374,2815.40002 1140.95365,2820.29997 1149.35369,2826.9 C1157.75373,2833.50003 1164.25366,2842.09995 1168.85369,2852.7 C1173.45371,2863.30005 1175.75369,2875.99993 1175.75369,2890.8 C1175.75369,2899.20004 1174.1537,2911.39992 1170.95369,2927.4 L1128.35369,3126 L1090.55369,3126 L1133.75369,2926.2 C1134.95369,2921.39998 1135.95368,2916.30003 1136.75369,2910.9 C1137.55369,2905.49997 1137.95369,2900.20003 1137.95369,2895 C1137.95369,2884.59995 1136.15371,2875.90004 1132.55369,2868.9 C1128.95367,2861.89997 1124.15372,2856.20002 1118.15369,2851.8 C1112.15366,2847.39998 1105.25373,2844.20001 1097.45369,2842.2 C1089.65365,2840.19999 1081.55373,2839.2 1073.15369,2839.2 C1059.55362,2839.2 1046.35375,2842.19997 1033.55369,2848.2 C1020.75362,2854.20003 1008.95374,2862.69995 998.153687,2873.7 C987.353633,2884.70006 977.953727,2898.09992 969.953687,2913.9 C961.953647,2929.70008 955.953707,2947.3999 951.953687,2967 L917.753687,3126 L880.553687,3126 L972.353687,2697.6 Z M1277.50737,2816.4 L1311.70737,2816.4 L1299.70737,2872.2 L1300.90737,2872.2 C1314.10744,2851.7999 1329.40729,2835.90006 1346.80737,2824.5 C1364.20746,2813.09994 1386.50724,2807.4 1413.70737,2807.4 C1433.70747,2807.4 1451.0073,2810.49997 1465.60737,2816.7 C1480.20745,2822.90003 1492.40733,2831.49995 1502.20737,2842.5 C1512.00742,2853.50005 1519.30735,2866.79992 1524.10737,2882.4 C1528.9074,2898.00008 1531.30737,2915.19991 1531.30737,2934 C1531.30737,2958.00012 1527.40741,2981.89988 1519.60737,3005.7 C1511.80734,3029.50012 1500.50745,3050.89991 1485.70737,3069.9 C1470.9073,3088.90009 1453.10748,3104.39994 1432.30737,3116.4 C1411.50727,3128.40006 1388.1075,3134.4 1362.10737,3134.4 C1350.10731,3134.4 1338.50743,3133.10001 1327.30737,3130.5 C1316.10732,3127.89999 1306.10742,3123.80003 1297.30737,3118.2 C1288.50733,3112.59997 1281.1074,3105.30004 1275.10737,3096.3 C1269.10734,3087.29995 1265.10738,3076.60006 1263.10737,3064.2 L1261.90737,3064.2 L1224.10737,3240 L1186.90737,3240 L1277.50737,2816.4 Z M1410.10737,2839.2 C1388.50727,2839.2 1369.30746,2844.69995 1352.50737,2855.7 C1335.70729,2866.70006 1321.60743,2880.69992 1310.20737,2897.7 C1298.80732,2914.70008 1290.1074,2933.4999 1284.10737,2954.1 C1278.10734,2974.7001 1275.10737,2994.5999 1275.10737,3013.8 C1275.10737,3041.40014 1282.6073,3063.19992 1297.60737,3079.2 C1312.60745,3095.20008 1333.90724,3103.2 1361.50737,3103.2 C1383.10748,3103.2 1402.20729,3097.80005 1418.80737,3087 C1435.40746,3076.19995 1449.20732,3062.40008 1460.20737,3045.6 C1471.20743,3028.79992 1479.50735,3010.3001 1485.10737,2990.1 C1490.7074,2969.8999 1493.50737,2950.40009 1493.50737,2931.6 C1493.50737,2905.19987 1486.70744,2883.20009 1473.10737,2865.6 C1459.50731,2847.99991 1438.50752,2839.2 1410.10737,2839.2 Z" id="php"></path>
        </g>
    </g>
</svg>