<?xml version="1.0" encoding="UTF-8"?>
<svg width="1421px" height="776px" viewBox="0 0 1421 776" version="1.1" xmlns="http://www.w3.org/2000/svg" xmlns:xlink="http://www.w3.org/1999/xlink">
    <!-- Generator: Sketch 53.2 (72643) - https://sketchapp.com -->
    <title>PHP</title>
    <desc>Created with Sketch.</desc>
    <g id="Page-1" stroke="none" stroke-width="1" fill="none" fill-rule="evenodd">
        <g id="Tools" transform="translate(-274.000000, -1725.000000)" fill="#0A0B08" fill-rule="nonzero">
            <path d="M523.445596,2324 C556.326589,2324 584.880708,2315.93228 609.108808,2299.79661 C633.336909,2283.66094 653.670902,2263.20351 670.111399,2238.42373 C686.551896,2213.64394 698.809977,2186.27134 706.88601,2156.30508 C714.962044,2126.33883 719,2097.81369 719,2070.72881 C719,2048.25412 716.115746,2027.65264 710.34715,2008.92373 C704.578555,1990.19482 696.070004,1973.91532 684.821244,1960.08475 C673.572483,1946.25417 659.439636,1935.44919 642.42228,1927.66949 C625.404924,1919.88979 605.359355,1916 582.284974,1916 C549.98084,1916 521.426722,1924.49991 496.621762,1941.5 C471.816802,1958.50008 451.194383,1979.82191 434.753886,2005.4661 C418.313389,2031.1103 405.911095,2058.77104 397.546632,2088.44915 C389.182169,2118.12727 385,2145.93207 385,2171.86441 C385,2189.15263 388.17268,2206.87279 394.518135,2225.02542 C400.86359,2243.17806 409.948991,2259.60162 421.774611,2274.29661 C433.600232,2288.9916 448.021504,2300.94911 465.03886,2310.16949 C482.056216,2319.38988 501.524934,2324 523.445596,2324 Z M403.619565,1897.37746 L436.456522,1897.37746 L417.445652,1983.85634 L419.173913,1983.85634 C426.086991,1970.59618 435.16027,1958.05687 446.394022,1946.23803 C457.627774,1934.41919 470.5896,1924.18596 485.279891,1915.53803 C499.970182,1906.8901 515.812415,1899.97186 532.807065,1894.7831 C549.801715,1889.59434 567.516212,1887 585.951087,1887 C615.331669,1887 640.391201,1891.75629 661.130435,1901.26901 C681.869669,1910.78174 699.008084,1923.75344 712.546196,1940.18451 C726.084307,1956.61558 735.877687,1976.07313 741.92663,1998.55775 C747.975574,2021.04237 751,2045.25621 751,2071.2 C751,2104.06214 745.95929,2137.21204 735.877717,2170.6507 C725.796145,2204.08937 710.962054,2234.21254 691.375,2261.02113 C671.787946,2287.82971 647.736556,2309.73747 619.220109,2326.74507 C590.703662,2343.75267 558.011054,2352.25634 521.141304,2352.25634 C482.543285,2352.25634 449.994698,2340.87007 423.494565,2318.09718 C396.994433,2295.3243 378.847875,2264.91287 369.054348,2226.86197 L367.326087,2226.86197 L306.836957,2501 L274,2501 L403.619565,1897.37746 Z M928.466527,1725 L961.299163,1725 L904.274059,1991.15686 L906.002092,1991.15686 C925.586569,1960.04746 950.354801,1934.98749 980.307531,1915.97619 C1010.26026,1896.96489 1045.10859,1887.45938 1084.85356,1887.45938 C1101.55796,1887.45938 1117.54211,1890.19582 1132.80649,1895.66877 C1148.07086,1901.14172 1161.46298,1909.207 1172.98326,1919.86485 C1184.50354,1930.5227 1193.71963,1943.48475 1200.6318,1958.7514 C1207.54397,1974.01805 1211,1991.15677 1211,2010.16807 C1211,2015.35297 1210.568,2021.97802 1209.70397,2030.04342 C1208.83995,2038.10882 1207.68794,2046.46214 1206.24791,2055.10364 C1204.80787,2063.74514 1203.36786,2071.95444 1201.92782,2079.73179 C1200.48779,2087.50914 1199.19178,2093.99017 1198.03975,2099.17507 L1143.60669,2342 L1110.77406,2342 L1165.20711,2100.03922 C1165.78313,2096.00652 1166.79114,2090.2456 1168.23117,2082.7563 C1169.67121,2075.267 1171.11122,2067.34575 1172.55126,2058.9923 C1173.99129,2050.63885 1175.2873,2042.1415 1176.43933,2033.5 C1177.59136,2024.8585 1178.16736,2017.36931 1178.16736,2011.03221 C1178.16736,1982.80331 1169.09528,1959.90368 1150.95084,1942.33263 C1132.80639,1924.76158 1107.03015,1915.97619 1073.62134,1915.97619 C1045.39665,1915.97619 1020.19641,1922.60124 998.019874,1935.85154 C975.843334,1949.10184 956.547153,1966.24056 940.130753,1987.26821 C923.714353,2008.29586 910.034225,2031.62756 899.089958,2057.26401 C888.145691,2082.90045 880.081616,2108.10445 874.89749,2132.87675 L830.832636,2342 L798,2342 L928.466527,1725 Z M1467.4456,2324 C1500.32659,2324 1528.88071,2315.93228 1553.10881,2299.79661 C1577.33691,2283.66094 1597.6709,2263.20351 1614.1114,2238.42373 C1630.5519,2213.64394 1642.80998,2186.27134 1650.88601,2156.30508 C1658.96204,2126.33883 1663,2097.81369 1663,2070.72881 C1663,2048.25412 1660.11575,2027.65264 1654.34715,2008.92373 C1648.57855,1990.19482 1640.07,1973.91532 1628.82124,1960.08475 C1617.57248,1946.25417 1603.43964,1935.44919 1586.42228,1927.66949 C1569.40492,1919.88979 1549.35936,1916 1526.28497,1916 C1493.98084,1916 1465.42672,1924.49991 1440.62176,1941.5 C1415.8168,1958.50008 1395.19438,1979.82191 1378.75389,2005.4661 C1362.31339,2031.1103 1349.9111,2058.77104 1341.54663,2088.44915 C1333.18217,2118.12727 1329,2145.93207 1329,2171.86441 C1329,2189.15263 1332.17268,2206.87279 1338.51813,2225.02542 C1344.86359,2243.17806 1353.94899,2259.60162 1365.77461,2274.29661 C1377.60023,2288.9916 1392.0215,2300.94911 1409.03886,2310.16949 C1426.05622,2319.38988 1445.52493,2324 1467.4456,2324 Z M1347.61957,1897.37746 L1380.45652,1897.37746 L1361.44565,1983.85634 L1363.17391,1983.85634 C1370.08699,1970.59618 1379.16027,1958.05687 1390.39402,1946.23803 C1401.62777,1934.41919 1414.5896,1924.18596 1429.27989,1915.53803 C1443.97018,1906.8901 1459.81242,1899.97186 1476.80707,1894.7831 C1493.80172,1889.59434 1511.51621,1887 1529.95109,1887 C1559.33167,1887 1584.3912,1891.75629 1605.13043,1901.26901 C1625.86967,1910.78174 1643.00808,1923.75344 1656.5462,1940.18451 C1670.08431,1956.61558 1679.87769,1976.07313 1685.92663,1998.55775 C1691.97557,2021.04237 1695,2045.25621 1695,2071.2 C1695,2104.06214 1689.95929,2137.21204 1679.87772,2170.6507 C1669.79615,2204.08937 1654.96205,2234.21254 1635.375,2261.02113 C1615.78795,2287.82971 1591.73656,2309.73747 1563.22011,2326.74507 C1534.70366,2343.75267 1502.01105,2352.25634 1465.1413,2352.25634 C1426.54329,2352.25634 1393.9947,2340.87007 1367.49457,2318.09718 C1340.99443,2295.3243 1322.84788,2264.91287 1313.05435,2226.86197 L1311.32609,2226.86197 L1250.83696,2501 L1218,2501 L1347.61957,1897.37746 Z" id="PHP"></path>
        </g>
    </g>
</svg>