<svg xmlns="http://www.w3.org/2000/svg" viewBox="0 0 2600 1401.37"><defs><style>.cls-1{fill-rule:evenodd;}</style></defs><title>phplogo</title><g id="Layer_2" data-name="Layer 2"><g id="Layer_1-2" data-name="Layer 1"><path d="M1300,50c690.36,0,1250,291.32,1250,650.68s-559.64,650.69-1250,650.69S50,1060.05,50,700.68,609.64,50,1300,50m0-50C1127.64,0,960.32,17.6,802.69,52.3A1875.42,1875.42,0,0,0,584.53,114C516.11,138,451.68,165.7,393,196.23,333.86,227,280,261,233,297.27c-48.2,37.15-89.77,77.05-123.53,118.61-35.16,43.26-62.26,88.81-80.57,135.38C9.71,600,0,650.25,0,700.68S9.71,801.39,28.86,850.11c18.31,46.57,45.41,92.12,80.57,135.38C143.19,1027,184.76,1067,233,1104.09c47,36.25,100.9,70.25,160.07,101.05,58.65,30.53,123.08,58.21,191.5,82.27a1875.42,1875.42,0,0,0,218.16,61.65c157.63,34.71,325,52.31,497.31,52.31s339.68-17.6,497.31-52.31a1876,1876,0,0,0,218.16-61.65c68.42-24.06,132.85-51.74,191.5-82.27,59.17-30.8,113-64.8,160.07-101.05,48.2-37.14,89.77-77,123.53-118.6,35.16-43.26,62.26-88.81,80.57-135.38,19.15-48.72,28.86-99,28.86-149.43s-9.71-100.71-28.86-149.42c-18.31-46.57-45.41-92.12-80.57-135.38-33.76-41.56-75.33-81.46-123.53-118.61C2320,261,2266.14,227,2207,196.23,2148.32,165.7,2083.89,138,2015.47,114A1876,1876,0,0,0,1797.31,52.3C1639.68,17.6,1472.36,0,1300,0Z"/><path class="cls-1" d="M401,1086l137-693.5H854.79c137,8.57,205.47,77.05,205.47,196.92,0,205.48-162.66,325.35-308.22,316.78H598L563.7,1086ZM632.19,777.74,675,520.89H786.3c59.93,0,102.73,25.68,102.73,77.05-8.55,145.56-77,171.24-154.1,179.8H632.19Zm396.25,128.42,137-693.48H1328.1l-34.25,179.78H1448c137,8.57,188.36,77.05,171.24,162.68l-59.93,351H1388L1448,589.38c8.55-42.81,8.55-68.49-51.37-68.49H1268.16l-77.05,385.27ZM1548.29,1086l137-693.5h316.78c137,8.57,205.49,77.05,205.49,196.92,0,205.48-162.68,325.35-308.22,316.78H1745.21L1711,1086Zm231.15-308.22,42.82-256.85h111.3c59.94,0,102.74,25.68,102.74,77.05-8.56,145.56-77,171.24-154.1,179.8H1779.44Z"/></g></g></svg>