<?xml version="1.0" encoding="UTF-8"?>
<svg width="944px" height="944px" viewBox="0 0 944 944" version="1.1" xmlns="http://www.w3.org/2000/svg" xmlns:xlink="http://www.w3.org/1999/xlink">
    <!-- Generator: Sketch 53.2 (72643) - https://sketchapp.com -->
    <title>ProtoPie</title>
    <desc>Created with Sketch.</desc>
    <g id="Page-1" stroke="none" stroke-width="1" fill="none" fill-rule="evenodd">
        <g id="Tools" transform="translate(-2506.000000, -2870.000000)" fill="#000000" fill-rule="nonzero">
            <g id="ProtoPie" transform="translate(2506.000000, 2870.000000)">
                <path d="M325.103681,30.3053206 C330.097894,30.5730479 335.057846,31.2902136 339.923412,32.4481242 C370.267179,41.2541663 397.94046,35.8237737 423.236714,17.3897923 C446.566786,0.394131063 471.833695,-5.24173586 499.242861,5.41357504 C508.226385,9.21061462 516.759837,13.9952897 524.685846,19.6793632 C547.898534,35.412825 572.901328,39.5516648 600.105073,33.5342027 C641.189477,24.4052724 667.60088,34.3267465 690.520108,69.873803 C707.570135,96.2919292 730.841516,111.262201 761.449397,116.633886 C798.307976,123.091651 820.992436,144.871928 827.389865,182.004072 C832.760184,213.236168 847.726645,237.041835 874.901044,254.096203 C908.707639,275.318765 920.181926,306.316033 910.673821,345.091971 C904.159008,371.744925 908.120719,396.900852 924.290366,419.062725 C950.437655,454.903316 950.701769,489.745889 924.290366,525.703894 C908.531563,547.278697 904.745929,571.730141 910.673821,598.236327 C920.44604,641.914296 909.001099,669.154319 870.205683,694.251539 C847.345147,708.928276 834.40356,729.475708 828.974549,755.541592 C819.114292,802.830038 801.594729,820.119234 754.406356,829.571052 C729.19814,834.561143 708.333132,846.742835 695.12743,868.904707 C671.650628,908.473189 637.902725,921.007123 594.030451,910.410519 C570.346956,904.462854 545.244611,909.627215 525.83034,924.441479 C489.382604,950.859605 453.932633,950.331243 417.778358,923.971823 C399.010904,909.993082 375.088213,904.88156 352.248733,909.970217 C347.465335,910.938881 342.593898,911.555304 337.781154,912.377201 C302.27249,918.247896 273.894906,907.005516 254.761312,876.331136 C237.916706,849.296587 214.792056,833.533771 183.215757,828.132732 C148.851588,822.262038 124.259637,802.741978 118.273053,767.341689 C112.081046,730.855321 93.6224102,705.200385 62.8971453,685.38679 C34.4315225,667.011516 25.2755696,638.421233 32.5533783,605.838877 C39.625765,574.313246 35.4879786,546.221972 16.5891528,519.627725 C-6.18334542,487.603085 -5.21492732,455.050083 17.6749549,423.054797 C35.2825566,398.544647 39.948571,371.921046 33.3457204,342.332745 C24.7179956,303.58616 36.1042447,275.465532 69.3826119,254.272324 C95.9113984,237.276663 111.02459,214.292893 116.60033,183.501099 C123.731409,143.844556 145.682219,123.297125 185.592783,116.164231 C213.004593,111.900867 237.220734,95.956122 251.973442,72.4569087 C271.576571,42.2521844 292.382887,30.2466137 325.103681,30.3053206 Z M474.298759,712.362633 L543.584672,640.828217 L620.529891,718.556215 L545.257394,789.620975 C562.219383,805.354437 577.244537,820.060527 593.2968,833.651185 C598.136125,837.14965 604.31345,838.231768 610.053368,836.586533 C631.91614,826.987947 653.397414,816.45005 674.614574,805.207669 C685.883439,799.336975 696.037156,791.118002 710.152584,781.724891 L486.03716,558.638491 L559.138053,485.049333 C561.192273,486.957309 563.774722,489.188173 566.151748,491.595158 C612.107588,537.592051 657.828661,583.794418 704.077961,629.556484 C730.489364,655.681075 769.255433,654.330815 792.11597,627.32562 C811.983214,603.842841 809.723571,566.417162 785.072929,548.834431 L718.193389,618.255396 L639.428717,541.319942 L710.592774,475.832342 L468.370866,232.668167 L402.753204,303.938401 L323.108152,225.740748 L399.99468,154.382453 C391.660415,148.159517 384.235876,143.96197 378.48406,138.120629 C342.711282,101.869089 342.593898,101.252666 296.84348,124.706092 C276.65343,135.038514 257.725258,147.777922 236.185292,160.634743 L461.357172,383.721142 L384.529336,459.541165 C336.959466,411.929831 288.245101,363.203064 239.560082,314.446945 C222.245941,297.099042 201.703739,292.813435 178.901894,300.21051 C156.10005,307.607585 143.686691,324.54454 140.047787,347.381542 C137.113186,365.962291 142.571543,382.60571 159.973723,398.955595 L226.060921,328.037603 L305.676627,403.534737 L233.661536,471.957684 L474.298759,712.362633 Z M549.600602,156.965559 L788.506411,395.550592 C796.635254,387.654508 805.321671,379.318121 813.861358,370.864321 C841.123794,343.859125 842.121558,343.360116 825.599759,308.840431 C813.861358,284.124807 798.748166,260.935562 782.637211,232.668167 L715.787016,303.997108 L640.749287,227.678077 C653.86695,195.389256 647.322792,167.180568 622.437381,149.950079 C599.635537,134.128557 570.436264,136.741016 549.600602,156.965559 Z M228.614023,638.450586 C251.357175,661.55177 271.077689,682.480796 291.913351,702.353098 C301.39211,711.364614 304.884285,718.526862 299.77808,732.293641 C290.328667,757.772456 304.766901,786.773688 330.151193,799.80663 C352.630231,811.225132 380.039398,806.117627 394.037441,788.857785 L152.4318,547.572232 C147.090827,554.176763 141.515087,562.248969 134.824198,569.293802 C102.690325,602.081632 101.927329,602.287107 122.762991,643.646151 C133.738396,665.426428 147.472325,685.856446 161.822521,710.014355 L228.614023,638.450586 Z M398.081351,616 L327,546.002146 L545.829438,329 L615,400.962603 L398.081351,616 Z" id="Combined-Shape"></path>
            </g>
        </g>
    </g>
</svg>