<?xml version="1.0" encoding="UTF-8"?>
<svg width="935px" height="861px" viewBox="0 0 935 861" version="1.1" xmlns="http://www.w3.org/2000/svg" xmlns:xlink="http://www.w3.org/1999/xlink">
    <!-- Generator: Sketch 53.2 (72643) - https://sketchapp.com -->
    <title>Sharepoint</title>
    <desc>Created with Sketch.</desc>
    <defs>
        <polygon id="path-1" points="0 -2.72848411e-12 611 -2.72848411e-12 611 971 0 971"></polygon>
    </defs>
    <g id="Page-1" stroke="none" stroke-width="1" fill="none" fill-rule="evenodd">
        <g id="Tools" transform="translate(-4425.000000, -1837.000000)">
            <g id="Sharepoint" transform="translate(4373.000000, 1784.000000)">
                <g id="Group-6">
                    <mask id="mask-2" fill="white">
                        <use xlink:href="#path-1"></use>
                    </mask>
                    <g id="Clip-5"></g>
                    <path d="M285.551289,587.681223 C290.047755,578.886438 289.591522,571.930591 285.090156,564.261509 C280.216865,555.958767 271.072106,547.485784 256.222317,536.859744 C252.70187,534.340623 239.656694,525.371526 235.630265,522.52415 C162.67566,477.788534 160.151298,358.970396 231.357344,311.509587 L231.527559,311.396133 L231.70038,311.28669 C256.012413,295.890439 283.52912,291.31865 318.164987,293.719342 C328.893599,294.462967 338.257973,295.598205 355.336535,298.009406 C355.788672,298.07324 356.103326,298.117706 356.867495,298.225741 C357.630339,298.333609 357.630339,298.333609 358.390501,298.441077 C359.616981,298.614436 360.524491,298.742444 361.411896,298.867132 L376.119455,300.933674 L376.471981,315.781522 C376.698331,325.315044 376.903847,333.830057 377.287909,349.643809 C377.31078,350.585481 377.31078,350.585481 377.333652,351.527165 C377.772368,369.589893 377.960716,377.386498 378.195775,387.280769 L378.777293,411.758442 L355.42974,404.383726 C352.880058,403.578367 350.210106,402.693022 346.954966,401.582239 C345.120168,400.956133 338.782984,398.768611 338.54613,398.687198 C328.999043,395.405591 322.995116,393.515618 316.945564,392.003519 C296.919668,386.998001 284.600682,388.629297 275.160996,398.776036 C269.697817,416.059167 278.377726,426.914787 309.321272,447.317768 C310.078362,447.816964 310.857985,448.329623 311.882427,449.002243 C311.929516,449.03316 313.897966,450.325177 314.467699,450.699461 C316.598763,452.099456 318.152119,453.1255 319.679937,454.145233 C328.082897,459.753743 334.07475,464.123452 339.351549,468.729262 C404.079909,511.825977 409.155097,618.09298 348.299258,666.587446 L347.99405,666.830658 L347.678303,667.060023 C324.899419,683.607058 297.90183,690.027938 267.83061,687.959523 C244.022585,686.321915 219.142099,679.51555 192.381482,668.505104 L181.800654,664.151705 L181.544526,652.713157 C180.797772,619.363613 180.269702,598.781057 179.550696,577.065511 L178.352115,540.865765 L207.45721,562.423865 C228.423988,577.953925 239.509494,585.042306 252.158901,589.729047 C265.838063,594.797322 276.294432,594.34915 285.551289,587.681223 Z M70.5586623,160.104229 L69.5191153,807.575972 L539.091026,893.030747 L539.091026,74.6546559 L70.5586623,160.104229 Z" id="Fill-4" stroke="#000000" stroke-width="35" mask="url(#mask-2)"></path>
                </g>
                <circle id="Oval" stroke="#000000" stroke-width="35" cx="882" cy="486" r="87"></circle>
                <path d="M657,344 C705.048773,344 744,305.048773 744,257 C744,208.951227 705.048773,170 657,170 C642.453302,170 623.050588,175.867753 611,182.179627 L612.585948,331.824736 C625.586877,339.558397 640.774743,344 657,344 Z" id="Oval-Copy-2" stroke="#000000" stroke-width="35"></path>
                <path d="M657,796 C705.048773,796 744,757.048773 744,709 C744,660.951227 705.048773,622 657,622 C642.453302,622 623.050588,627.867753 611,634.179627 L612.585948,783.824736 C625.586877,791.558397 640.774743,796 657,796 Z" id="Oval-Copy-3" stroke="#000000" stroke-width="35"></path>
                <path d="M719.5,647.5 L824.5,556.5" id="Line-7" stroke="#000000" stroke-width="35" stroke-linecap="square"></path>
                <path d="M825,409.5 L728.5,311.5" id="Line-7-Copy" stroke="#000000" stroke-width="35" stroke-linecap="square"></path>
            </g>
        </g>
    </g>
</svg>