<?xml version="1.0" encoding="UTF-8"?>
<svg width="929px" height="502px" viewBox="0 0 929 502" version="1.1" xmlns="http://www.w3.org/2000/svg" xmlns:xlink="http://www.w3.org/1999/xlink">
    <!-- Generator: Sketch 53.2 (72643) - https://sketchapp.com -->
    <title>Snafu</title>
    <desc>Created with Sketch.</desc>
    <g id="Page-1" stroke="none" stroke-width="1" fill="none" fill-rule="evenodd">
        <g id="Artboard" transform="translate(-3851.000000, -1793.000000)" stroke="#000000" stroke-width="35">
            <g id="Snafu" transform="translate(3869.000000, 1811.000000)">
                <g id="Group-12">
                    <path d="M142,0 C63.6971138,0 9.09494702e-13,63.6967333 9.09494702e-13,141.999152 C9.09494702e-13,220.303267 63.6971138,284 142,284 C220.302886,284 284,220.303267 284,141.999152 C284,63.6967333 220.302886,0 142,0" id="Fill-4"></path>
                    <path d="M751,0 C672.697114,0 609,63.6967333 609,141.999152 C609,220.303267 672.697114,284 751,284 C829.302886,284 893,220.303267 893,141.999152 C893,63.6967333 829.302886,0 751,0" id="Fill-6"></path>
                    <path d="M381,478 L503,132" id="Stroke-11"></path>
                    <path d="M164.79857,283.4949 L722.540002,283.4949" id="Line" stroke-linecap="square"></path>
                </g>
            </g>
        </g>
    </g>
</svg>